# xmcd
# 
# Track frame offsets:
#     187
#     24857
#     50555
#     71820
#     95425
#     119227
#     136260
#     162452
#     181760
# 
# Disc length: 2817
# 
# Revision: 12
# Processed by: cddbd v1.5.2PL0 Copyright (c) Steve Scherf et al.
# Submitted via: BonkEnc v1.0.15
# 
DISCID=7c0aff09
DTITLE=Deep Purple - Slaves and Masters (BVCP-25)
DYEAR=1990
DGENRE=Hard Rock
TTITLE0=King Of Dreams
TTITLE1=The Cut Runs Deep
TTITLE2=Fire In The Basement
TTITLE3=Truth Hurts
TTITLE4=Breakfast In Bed
TTITLE5=Love Conquers All
TTITLE6=Fortuneteller
TTITLE7=Too Much Is Not Enough
TTITLE8=Wicked Ways
EXTD=YEAR: 1990
EXTT0=
EXTT1=
EXTT2=
EXTT3=
EXTT4=
EXTT5=
EXTT6=
EXTT7=
EXTT8=
PLAYORDER=
